<mxfile host="app.diagrams.net" agent="Mozilla/5.0 (Windows NT 10.0; Win64; x64) AppleWebKit/537.36 (KHTML, like Gecko) Chrome/132.0.0.0 Safari/537.36" version="26.0.10">
  <diagram name="Page-1" id="c7558073-3199-34d8-9f00-42111426c3f3">
    <mxGraphModel dx="1195" dy="715" grid="1" gridSize="10" guides="1" tooltips="1" connect="1" arrows="1" fold="1" page="1" pageScale="1" pageWidth="826" pageHeight="1169" background="none" math="0" shadow="0">
      <root>
        <mxCell id="0" />
        <mxCell id="1" parent="0" />
        <mxCell id="8Yf_1v0yrgK7R68BSetH-113" value="РегистрНакопления.Продажи" style="swimlane;fontStyle=0;childLayout=stackLayout;horizontal=1;startSize=30;horizontalStack=0;resizeParent=1;resizeParentMax=0;resizeLast=0;collapsible=1;marginBottom=0;whiteSpace=wrap;html=1;fontSize=14;fillColor=#fff2cc;strokeColor=#d6b656;" vertex="1" parent="1">
          <mxGeometry x="40" y="20" width="265" height="180" as="geometry" />
        </mxCell>
        <mxCell id="8Yf_1v0yrgK7R68BSetH-137" value="&lt;span style=&quot;font-size: 14px;&quot;&gt;Организация&lt;/span&gt;" style="text;strokeColor=none;fillColor=none;align=left;verticalAlign=middle;spacingLeft=4;spacingRight=4;overflow=hidden;points=[[0,0.5],[1,0.5]];portConstraint=eastwest;rotatable=0;whiteSpace=wrap;html=1;" vertex="1" parent="8Yf_1v0yrgK7R68BSetH-113">
          <mxGeometry y="30" width="265" height="30" as="geometry" />
        </mxCell>
        <mxCell id="8Yf_1v0yrgK7R68BSetH-142" value="&lt;span style=&quot;font-size: 14px;&quot;&gt;Склад&lt;/span&gt;" style="text;strokeColor=none;fillColor=none;align=left;verticalAlign=middle;spacingLeft=4;spacingRight=4;overflow=hidden;points=[[0,0.5],[1,0.5]];portConstraint=eastwest;rotatable=0;whiteSpace=wrap;html=1;" vertex="1" parent="8Yf_1v0yrgK7R68BSetH-113">
          <mxGeometry y="60" width="265" height="30" as="geometry" />
        </mxCell>
        <mxCell id="8Yf_1v0yrgK7R68BSetH-114" value="&lt;span style=&quot;font-size: 14px;&quot;&gt;Номенклатура&lt;/span&gt;" style="text;strokeColor=none;fillColor=none;align=left;verticalAlign=middle;spacingLeft=4;spacingRight=4;overflow=hidden;points=[[0,0.5],[1,0.5]];portConstraint=eastwest;rotatable=0;whiteSpace=wrap;html=1;" vertex="1" parent="8Yf_1v0yrgK7R68BSetH-113">
          <mxGeometry y="90" width="265" height="30" as="geometry" />
        </mxCell>
        <mxCell id="8Yf_1v0yrgK7R68BSetH-115" value="&lt;span style=&quot;font-size: 14px;&quot;&gt;ХарактеристикаНоменклатуры&lt;/span&gt;" style="text;strokeColor=none;fillColor=none;align=left;verticalAlign=middle;spacingLeft=4;spacingRight=4;overflow=hidden;points=[[0,0.5],[1,0.5]];portConstraint=eastwest;rotatable=0;whiteSpace=wrap;html=1;" vertex="1" parent="8Yf_1v0yrgK7R68BSetH-113">
          <mxGeometry y="120" width="265" height="30" as="geometry" />
        </mxCell>
        <mxCell id="8Yf_1v0yrgK7R68BSetH-116" value="&lt;span style=&quot;font-size: 14px;&quot;&gt;СерияНоменклатуры&lt;/span&gt;" style="text;strokeColor=none;fillColor=none;align=left;verticalAlign=middle;spacingLeft=4;spacingRight=4;overflow=hidden;points=[[0,0.5],[1,0.5]];portConstraint=eastwest;rotatable=0;whiteSpace=wrap;html=1;" vertex="1" parent="8Yf_1v0yrgK7R68BSetH-113">
          <mxGeometry y="150" width="265" height="30" as="geometry" />
        </mxCell>
        <mxCell id="8Yf_1v0yrgK7R68BSetH-120" value="&lt;span style=&quot;font-size: 14px; text-align: left;&quot;&gt;Номенклатура&lt;/span&gt;" style="rounded=0;whiteSpace=wrap;html=1;fillColor=#dae8fc;strokeColor=#6c8ebf;" vertex="1" parent="1">
          <mxGeometry x="730" y="35" width="270" height="60" as="geometry" />
        </mxCell>
        <mxCell id="8Yf_1v0yrgK7R68BSetH-121" value="&lt;span style=&quot;font-size: 14px; text-align: left;&quot;&gt;ХарактеристикиНоменклатуры&lt;/span&gt;" style="rounded=0;whiteSpace=wrap;html=1;fillColor=#dae8fc;strokeColor=#6c8ebf;" vertex="1" parent="1">
          <mxGeometry x="690" y="110" width="270" height="60" as="geometry" />
        </mxCell>
        <mxCell id="8Yf_1v0yrgK7R68BSetH-122" value="&lt;span style=&quot;font-size: 14px; text-align: left;&quot;&gt;СерииНоменклатуры&lt;/span&gt;" style="rounded=0;whiteSpace=wrap;html=1;fillColor=#dae8fc;strokeColor=#6c8ebf;" vertex="1" parent="1">
          <mxGeometry x="640" y="190" width="270" height="60" as="geometry" />
        </mxCell>
        <mxCell id="8Yf_1v0yrgK7R68BSetH-123" style="edgeStyle=orthogonalEdgeStyle;rounded=0;orthogonalLoop=1;jettySize=auto;html=1;entryX=0;entryY=0.5;entryDx=0;entryDy=0;curved=1;strokeWidth=2;targetPerimeterSpacing=0;sourcePerimeterSpacing=0;startSize=6;endSize=10;shadow=0;flowAnimation=0;" edge="1" parent="1" source="8Yf_1v0yrgK7R68BSetH-114" target="8Yf_1v0yrgK7R68BSetH-120">
          <mxGeometry relative="1" as="geometry" />
        </mxCell>
        <mxCell id="8Yf_1v0yrgK7R68BSetH-124" style="edgeStyle=orthogonalEdgeStyle;rounded=0;orthogonalLoop=1;jettySize=auto;html=1;entryX=0;entryY=0.5;entryDx=0;entryDy=0;curved=1;strokeWidth=2;targetPerimeterSpacing=0;sourcePerimeterSpacing=0;startSize=6;endSize=10;shadow=0;flowAnimation=0;" edge="1" parent="1" source="8Yf_1v0yrgK7R68BSetH-115" target="8Yf_1v0yrgK7R68BSetH-121">
          <mxGeometry relative="1" as="geometry" />
        </mxCell>
        <mxCell id="8Yf_1v0yrgK7R68BSetH-125" style="edgeStyle=orthogonalEdgeStyle;rounded=0;orthogonalLoop=1;jettySize=auto;html=1;entryX=0;entryY=0.5;entryDx=0;entryDy=0;curved=1;strokeWidth=2;targetPerimeterSpacing=0;sourcePerimeterSpacing=0;startSize=6;endSize=10;shadow=0;flowAnimation=0;" edge="1" parent="1" source="8Yf_1v0yrgK7R68BSetH-116" target="8Yf_1v0yrgK7R68BSetH-122">
          <mxGeometry relative="1" as="geometry" />
        </mxCell>
        <mxCell id="8Yf_1v0yrgK7R68BSetH-126" value="РегистрНакопления.Товары" style="swimlane;fontStyle=0;childLayout=stackLayout;horizontal=1;startSize=30;horizontalStack=0;resizeParent=1;resizeParentMax=0;resizeLast=0;collapsible=1;marginBottom=0;whiteSpace=wrap;html=1;fontSize=14;fillColor=#fff2cc;strokeColor=#d6b656;rounded=0;shadow=0;" vertex="1" parent="1">
          <mxGeometry x="40" y="290" width="265" height="180" as="geometry">
            <mxRectangle x="40" y="260" width="220" height="30" as="alternateBounds" />
          </mxGeometry>
        </mxCell>
        <mxCell id="8Yf_1v0yrgK7R68BSetH-135" value="&lt;span style=&quot;font-size: 14px;&quot;&gt;Организация&lt;/span&gt;" style="text;strokeColor=none;fillColor=none;align=left;verticalAlign=middle;spacingLeft=4;spacingRight=4;overflow=hidden;points=[[0,0.5],[1,0.5]];portConstraint=eastwest;rotatable=0;whiteSpace=wrap;html=1;" vertex="1" parent="8Yf_1v0yrgK7R68BSetH-126">
          <mxGeometry y="30" width="265" height="30" as="geometry" />
        </mxCell>
        <mxCell id="8Yf_1v0yrgK7R68BSetH-139" value="&lt;span style=&quot;font-size: 14px;&quot;&gt;Склад&lt;/span&gt;" style="text;strokeColor=none;fillColor=none;align=left;verticalAlign=middle;spacingLeft=4;spacingRight=4;overflow=hidden;points=[[0,0.5],[1,0.5]];portConstraint=eastwest;rotatable=0;whiteSpace=wrap;html=1;" vertex="1" parent="8Yf_1v0yrgK7R68BSetH-126">
          <mxGeometry y="60" width="265" height="30" as="geometry" />
        </mxCell>
        <mxCell id="8Yf_1v0yrgK7R68BSetH-127" value="&lt;span style=&quot;font-size: 14px;&quot;&gt;Номенклатура&lt;/span&gt;" style="text;strokeColor=none;fillColor=none;align=left;verticalAlign=middle;spacingLeft=4;spacingRight=4;overflow=hidden;points=[[0,0.5],[1,0.5]];portConstraint=eastwest;rotatable=0;whiteSpace=wrap;html=1;" vertex="1" parent="8Yf_1v0yrgK7R68BSetH-126">
          <mxGeometry y="90" width="265" height="30" as="geometry" />
        </mxCell>
        <mxCell id="8Yf_1v0yrgK7R68BSetH-128" value="&lt;span style=&quot;font-size: 14px;&quot;&gt;ХарактеристикаНоменклатуры&lt;/span&gt;" style="text;strokeColor=none;fillColor=none;align=left;verticalAlign=middle;spacingLeft=4;spacingRight=4;overflow=hidden;points=[[0,0.5],[1,0.5]];portConstraint=eastwest;rotatable=0;whiteSpace=wrap;html=1;" vertex="1" parent="8Yf_1v0yrgK7R68BSetH-126">
          <mxGeometry y="120" width="265" height="30" as="geometry" />
        </mxCell>
        <mxCell id="8Yf_1v0yrgK7R68BSetH-129" value="&lt;span style=&quot;font-size: 14px;&quot;&gt;СерияНоменклатуры&lt;/span&gt;" style="text;strokeColor=none;fillColor=none;align=left;verticalAlign=middle;spacingLeft=4;spacingRight=4;overflow=hidden;points=[[0,0.5],[1,0.5]];portConstraint=eastwest;rotatable=0;whiteSpace=wrap;html=1;" vertex="1" parent="8Yf_1v0yrgK7R68BSetH-126">
          <mxGeometry y="150" width="265" height="30" as="geometry" />
        </mxCell>
        <mxCell id="8Yf_1v0yrgK7R68BSetH-131" style="edgeStyle=orthogonalEdgeStyle;rounded=0;orthogonalLoop=1;jettySize=auto;html=1;curved=1;strokeWidth=2;targetPerimeterSpacing=0;sourcePerimeterSpacing=0;startSize=6;endSize=10;shadow=0;flowAnimation=0;" edge="1" parent="1" source="8Yf_1v0yrgK7R68BSetH-128" target="8Yf_1v0yrgK7R68BSetH-121">
          <mxGeometry relative="1" as="geometry" />
        </mxCell>
        <mxCell id="8Yf_1v0yrgK7R68BSetH-132" style="edgeStyle=orthogonalEdgeStyle;rounded=0;orthogonalLoop=1;jettySize=auto;html=1;curved=1;strokeWidth=2;targetPerimeterSpacing=0;sourcePerimeterSpacing=0;startSize=6;endSize=10;shadow=0;flowAnimation=0;" edge="1" parent="1" source="8Yf_1v0yrgK7R68BSetH-129" target="8Yf_1v0yrgK7R68BSetH-122">
          <mxGeometry relative="1" as="geometry" />
        </mxCell>
        <mxCell id="8Yf_1v0yrgK7R68BSetH-133" style="edgeStyle=orthogonalEdgeStyle;rounded=0;orthogonalLoop=1;jettySize=auto;html=1;curved=1;strokeWidth=2;targetPerimeterSpacing=0;sourcePerimeterSpacing=0;startSize=6;endSize=10;shadow=0;flowAnimation=0;" edge="1" parent="1" source="8Yf_1v0yrgK7R68BSetH-127" target="8Yf_1v0yrgK7R68BSetH-120">
          <mxGeometry relative="1" as="geometry" />
        </mxCell>
        <mxCell id="8Yf_1v0yrgK7R68BSetH-134" value="Организации" style="rounded=0;whiteSpace=wrap;html=1;fontSize=14;fillColor=#dae8fc;strokeColor=#6c8ebf;" vertex="1" parent="1">
          <mxGeometry x="690" y="410" width="270" height="60" as="geometry" />
        </mxCell>
        <mxCell id="8Yf_1v0yrgK7R68BSetH-136" style="edgeStyle=orthogonalEdgeStyle;rounded=0;orthogonalLoop=1;jettySize=auto;html=1;curved=1;strokeWidth=2;targetPerimeterSpacing=0;sourcePerimeterSpacing=0;startSize=6;endSize=10;shadow=0;flowAnimation=0;" edge="1" parent="1" source="8Yf_1v0yrgK7R68BSetH-135" target="8Yf_1v0yrgK7R68BSetH-134">
          <mxGeometry relative="1" as="geometry" />
        </mxCell>
        <mxCell id="8Yf_1v0yrgK7R68BSetH-138" style="edgeStyle=orthogonalEdgeStyle;rounded=0;orthogonalLoop=1;jettySize=auto;html=1;curved=1;strokeWidth=2;targetPerimeterSpacing=0;sourcePerimeterSpacing=0;startSize=6;endSize=10;shadow=0;flowAnimation=0;" edge="1" parent="1" source="8Yf_1v0yrgK7R68BSetH-137" target="8Yf_1v0yrgK7R68BSetH-134">
          <mxGeometry relative="1" as="geometry" />
        </mxCell>
        <mxCell id="8Yf_1v0yrgK7R68BSetH-140" value="Склады" style="rounded=0;whiteSpace=wrap;html=1;fontSize=14;fillColor=#dae8fc;strokeColor=#6c8ebf;" vertex="1" parent="1">
          <mxGeometry x="690" y="500" width="270" height="60" as="geometry" />
        </mxCell>
        <mxCell id="8Yf_1v0yrgK7R68BSetH-141" style="edgeStyle=orthogonalEdgeStyle;rounded=0;orthogonalLoop=1;jettySize=auto;html=1;curved=1;strokeWidth=2;endSize=13;" edge="1" parent="1" source="8Yf_1v0yrgK7R68BSetH-139" target="8Yf_1v0yrgK7R68BSetH-140">
          <mxGeometry relative="1" as="geometry" />
        </mxCell>
        <mxCell id="8Yf_1v0yrgK7R68BSetH-143" style="edgeStyle=orthogonalEdgeStyle;rounded=0;orthogonalLoop=1;jettySize=auto;html=1;curved=1;strokeWidth=2;" edge="1" parent="1" source="8Yf_1v0yrgK7R68BSetH-142" target="8Yf_1v0yrgK7R68BSetH-140">
          <mxGeometry relative="1" as="geometry" />
        </mxCell>
      </root>
    </mxGraphModel>
  </diagram>
</mxfile>
